<svg width="24" height="25" viewBox="0 0 24 25" fill="none" xmlns="http://www.w3.org/2000/svg">
<path d="M4 7.5C4 6.39543 4.89543 5.5 6 5.5H18C19.1046 5.5 20 6.39543 20 7.5V19.5C20 20.6046 19.1046 21.5 18 21.5H6C4.89543 21.5 4 20.6046 4 19.5V7.5Z" fill="black" fill-opacity="0.15"/>
<path d="M20.8572 15.5L14.6573 21.6999L12.0001 19.0428M20 9.5V7.5C20 6.39543 19.1046 5.5 18 5.5H9M9 21.5H6C4.89543 21.5 4 20.6046 4 19.5V11.5M15 3.5V5.5V7.5M9 3.5V5.5M9 7.5V5.5M9 5.5H6C4.89543 5.5 4 6.39543 4 7.5V11.5M9 11.5H4" stroke="#3B82F6" stroke-width="2" stroke-linecap="round" stroke-linejoin="round"/>
</svg>
