<svg width="38" height="39" viewBox="0 0 38 39" fill="none" xmlns="http://www.w3.org/2000/svg">
<path d="M33.0909 19.5C33.0909 27.5772 26.7415 34.125 18.9091 34.125C11.0767 34.125 4.72726 27.5772 4.72726 19.5C4.72726 11.4228 11.0767 4.875 18.9091 4.875C26.7415 4.875 33.0909 11.4228 33.0909 19.5Z" fill="#6B82CA"/>
<path d="M26.7879 14.625L15.7575 26L11.0302 21.125M33.0909 19.5C33.0909 27.5772 26.7415 34.125 18.9091 34.125C11.0767 34.125 4.72726 27.5772 4.72726 19.5C4.72726 11.4228 11.0767 4.875 18.9091 4.875C26.7415 4.875 33.0909 11.4228 33.0909 19.5Z" stroke="black" stroke-width="2" stroke-linecap="round" stroke-linejoin="round"/>
</svg>
