<svg width="41" height="39" viewBox="0 0 41 39" fill="none" xmlns="http://www.w3.org/2000/svg">
<path d="M35.875 19.5C35.875 27.5772 28.9914 34.125 20.5 34.125C12.0086 34.125 5.125 27.5772 5.125 19.5C5.125 11.4228 12.0086 4.875 20.5 4.875C28.9914 4.875 35.875 11.4228 35.875 19.5Z" fill="black" fill-opacity="0.15"/>
<path d="M20.5 26H22.2083C23.3472 26 25.625 25.35 25.625 22.75C25.625 20.15 23.3472 19.5 22.2083 19.5H18.7917C17.6528 19.5 15.375 18.85 15.375 16.25C15.375 13.65 17.6528 13 18.7917 13H20.5M20.5 26H15.375M20.5 26V29.25M25.625 13H20.5M20.5 13V9.75M35.875 19.5C35.875 27.5772 28.9914 34.125 20.5 34.125C12.0086 34.125 5.125 27.5772 5.125 19.5C5.125 11.4228 12.0086 4.875 20.5 4.875C28.9914 4.875 35.875 11.4228 35.875 19.5Z" stroke="black" stroke-width="2" stroke-linecap="round" stroke-linejoin="round"/>
</svg>
