<svg width="26" height="35" viewBox="0 0 26 35" fill="none" xmlns="http://www.w3.org/2000/svg">
<path d="M17.1698 5.83325H5.36559C4.77293 5.83325 4.29248 6.48617 4.29248 7.29159V27.7083C4.29248 28.5137 4.77293 29.1666 5.36559 29.1666H20.3892C20.9818 29.1666 21.4623 28.5137 21.4623 27.7083V11.6666L12.8774 23.3333H8.58493V17.4999L17.1698 5.83325Z" fill="black" fill-opacity="0.15"/>
<path d="M15.0236 8.75L8.58493 17.5V23.3333H12.8774L19.3161 14.5833M15.0236 8.75L18.243 4.375L22.5354 10.2083L19.3161 14.5833M15.0236 8.75L19.3161 14.5833M10.7312 5.83333L4.29248 5.83333L4.29248 29.1667L21.4623 29.1667V20.4167" stroke="#3B82F6" stroke-width="2" stroke-linecap="round" stroke-linejoin="round"/>
</svg>
