<svg width="92" height="94" viewBox="0 0 92 94" fill="none" xmlns="http://www.w3.org/2000/svg">
<path d="M61.3333 58.75H30.6667C22.1983 58.75 15.3333 65.7642 15.3333 74.4167V82.25H76.6667V74.4167C76.6667 65.7642 69.8017 58.75 61.3333 58.75Z" fill="black" fill-opacity="0.15"/>
<path d="M46 43.0833C54.4684 43.0833 61.3333 36.0691 61.3333 27.4167C61.3333 18.7642 54.4684 11.75 46 11.75C37.5316 11.75 30.6667 18.7642 30.6667 27.4167C30.6667 36.0691 37.5316 43.0833 46 43.0833Z" fill="black" fill-opacity="0.15"/>
<path d="M61.3333 58.75H30.6667C22.1983 58.75 15.3333 65.7642 15.3333 74.4167V82.25H76.6667V74.4167C76.6667 65.7642 69.8017 58.75 61.3333 58.75Z" stroke="black" stroke-width="2" stroke-linecap="round" stroke-linejoin="round"/>
<path d="M46 43.0833C54.4684 43.0833 61.3333 36.0691 61.3333 27.4167C61.3333 18.7642 54.4684 11.75 46 11.75C37.5316 11.75 30.6667 18.7642 30.6667 27.4167C30.6667 36.0691 37.5316 43.0833 46 43.0833Z" stroke="black" stroke-width="2" stroke-linecap="round" stroke-linejoin="round"/>
</svg>
