<svg width="39" height="37" viewBox="0 0 39 37" fill="none" xmlns="http://www.w3.org/2000/svg">
<path d="M6.37677 21.4367V27.31C6.37677 28.9319 7.80426 30.2467 9.56515 30.2467H28.6954C30.4563 30.2467 31.8838 28.9319 31.8838 27.31V18.5C31.8838 20.1219 30.4563 21.4367 28.6954 21.4367H6.37677Z" fill="black" fill-opacity="0.15"/>
<path d="M19.1303 21.4366V18.4999M19.1303 21.4366V24.3732M19.1303 21.4366H28.6954C30.4563 21.4366 31.8838 20.1218 31.8838 18.4999M19.1303 21.4366H9.56515C7.80426 21.4366 6.37677 20.1218 6.37677 18.4999M31.8838 18.4999V27.3099C31.8838 28.9318 30.4563 30.2466 28.6954 30.2466H9.56515C7.80426 30.2466 6.37677 28.9318 6.37677 27.3099V18.4999M31.8838 18.4999V12.6266C31.8838 11.0047 30.4563 9.68991 28.6954 9.68991H9.56515C7.80426 9.68991 6.37677 11.0047 6.37677 12.6266V18.4999M23.9129 9.68991V8.22158C23.9129 6.5997 22.4854 5.28491 20.7245 5.28491H17.5361C15.7752 5.28491 14.3477 6.5997 14.3477 8.22158V9.68991" stroke="#3B82F6" stroke-width="2" stroke-linecap="round" stroke-linejoin="round"/>
</svg>
