<svg width="24" height="25" viewBox="0 0 24 25" fill="none" xmlns="http://www.w3.org/2000/svg">
<path d="M15 8.5C15 10.1569 13.6569 11.5 12 11.5C10.3431 11.5 9 10.1569 9 8.5C9 6.84315 10.3431 5.5 12 5.5C13.6569 5.5 15 6.84315 15 8.5Z" fill="black" fill-opacity="0.15"/>
<path d="M6 18.5C6 16.2909 7.79086 14.5 10 14.5H14C16.2091 14.5 18 16.2909 18 18.5V19.5H6V18.5Z" fill="black" fill-opacity="0.15"/>
<path d="M3 19.5H1V18.5C1 16.6362 2.27477 15.07 4 14.626M6 11.3293C4.83481 10.9175 4 9.80623 4 8.50001C4 7.19379 4.83481 6.08255 6 5.67072M21 19.5H23V18.5C23 16.6362 21.7252 15.07 20 14.626M18 5.67072C19.1652 6.08255 20 7.19379 20 8.50001C20 9.80623 19.1652 10.9175 18 11.3293M10 14.5H14C16.2091 14.5 18 16.2909 18 18.5V19.5H6V18.5C6 16.2909 7.79086 14.5 10 14.5ZM15 8.5C15 10.1569 13.6569 11.5 12 11.5C10.3431 11.5 9 10.1569 9 8.5C9 6.84315 10.3431 5.5 12 5.5C13.6569 5.5 15 6.84315 15 8.5Z" stroke="#3B82F6" stroke-width="2" stroke-linecap="round" stroke-linejoin="round"/>
</svg>
